# xmcd
#
# Track frame offsets:
# 150
# 18565
# 34921
# 56593
# 70552
# 89991
# 103752
# 118759
# 132075
# 145041
# 160397
# 178551
#
# Disc length: 2577 seconds
#
#
# Revision: 1
# Processed by: cddbd v1.5.2PL0 Copyright (c) Steve Scherf et al.
# Submitted via: FreeRIP 2.96 
#
DISCID=a90a0f0c
DTITLE=Modão Sertanejo - CD 3 - Modão Sertanejo - CD 3
DYEAR=2010
DGENRE=Sertanejo
TTITLE0=LUAN SANTANA - APAIXONDADO/ A LOIRA DO CARRO BRANCO
TTITLE1=JEAN E JULIO - VIDA PELO AVESSO
TTITLE2=JOÃO NETO E FREDERICO - AMARGURADO/FIO DE CABELO/TELEFONE MUDO
TTITLE3=CESAR E ALESSANDRO - AINDA ONTEM CHOREI DE SAUDADE
TTITLE4=HENRIQUE E DIEGO - EVIDENCIAS
TTITLE5=TATO E ED REIS - OI, PAIXÃO
TTITLE6=TOM E ARNALDO - VOCE NAO SABE AMAR
TTITLE7=ALVARO E DANIEL - PAIXOA OU LOUCURA
TTITLE8=MARCELINHO DE LIMA E CAMARGO - SACO DE OURO
TTITLE9=REGINALDO SILVA -  DE IGUAL PRA IGUAL
TTITLE10=MATEUS E CRISTIANO - FIZ TUDO ERRADO
TTITLE11=DIOGO E DANILO - VESTIDO DE SEDA
EXTD=Ano 2010 - M. P. A. 
EXTT0=
EXTT1=
EXTT2=
EXTT3=
EXTT4=
EXTT5=
EXTT6=
EXTT7=
EXTT8=
EXTT9=
EXTT10=
EXTT11=
PLAYORDER=
